# xmcd
#
# Track frame offsets:
#	150
#	19209
#	40368
#	59775
#	77591
#	95546
#	109674
#	130766
#	154340
#	190681
#	215650
#	235616
#	251340
#	275771
#	297409
#	315828
#	338915
#
# Disc length: 4752 seconds
#
# Revision: 1
# Processed by: cddbd v1.5.1PL0 Copyright (c) Steve Scherf et al.
# Submitted via: EasyCDDAExtractor 7.1.0.1
#
DISCID=f4128e11
DTITLE=Various Artist - MANELE 3
DYEAR=1900
DGENRE=
TTITLE0=A C M - O VIATA INTREAGA
TTITLE1=ADI DE LA VALCEA CU PLAY AJ - AM VUT MULTE FEMEI
TTITLE2=ADRIAN MINUNE - DRAGOSTE REA
TTITLE3=CARMEN SERBAN - NU MA LAS DE TINE
TTITLE4=COSTEL CIOFU - DRAGOSTE NEMURITOARE
TTITLE5=FLORIN SALAM - GASESTE-MI IUBIREA
TTITLE6=GUTA - NU TE LASA INIMA (DJ VALLI RMX)
TTITLE7=GUTA and SORINA - NU-I ALTA SA MA INTELEAGA
TTITLE8=GUTA CU COPILUL DE AUR - STEULA MEA
TTITLE9=GUTA CU COPILUL DE AUR - SUNT SMECHER NR 1
TTITLE10=GUTA CU LARISA - UITA-TE IN OCHII MEI
TTITLE11=LIVIU GUTA - DE CE MA MINTI
TTITLE12=MESAGER 2 - TE ROG URSITOARE BUNA (DJ DUDU EXT VERS)
TTITLE13=NICOLAE GUTA - AS DA 10 ANI DIN VIATA
TTITLE14=NICOLAE GUTA - IUBIRE FAC ORICE
TTITLE15=NICOLAE GUTA - ORICE MI-AR FI ZIS
TTITLE16=SANDU CIORBA - SA MA DUC, SA NU MA DUC
EXTD=
EXTT0=
EXTT1=
EXTT2=
EXTT3=
EXTT4=
EXTT5=
EXTT6=
EXTT7=
EXTT8=
EXTT9=
EXTT10=
EXTT11=
EXTT12=
EXTT13=
EXTT14=
EXTT15=
EXTT16=
PLAYORDER=
